<svg width="51" height="51" viewBox="0 0 51 51" fill="none" xmlns="http://www.w3.org/2000/svg">
<path d="M17.4297 10.1996C16.2785 10.2102 15.3368 10.2309 14.531 10.2967C13.547 10.3771 12.8501 10.5125 12.2973 10.7101L11.7868 10.9292C10.6663 11.5002 9.72874 12.3682 9.07494 13.4344L8.81347 13.9025C8.49237 14.5328 8.28819 15.3343 8.18096 16.6468C8.07213 17.9789 8.07139 19.6828 8.07139 22.0904V28.8839C8.07139 31.2913 8.07213 32.9952 8.18096 34.3273C8.28819 35.6401 8.49237 36.4416 8.81347 37.0717L9.07494 37.5398C9.72874 38.606 10.6663 39.474 11.7868 40.045L12.2973 40.2643C12.8501 40.4616 13.547 40.597 14.531 40.6776C15.3362 40.7434 16.2772 40.7641 17.4272 40.7748L17.4297 10.1996ZM46.3213 28.8839C46.3213 31.2355 46.322 33.1016 46.1994 34.6038C46.0905 35.9354 45.8791 37.0951 45.4224 38.16L45.2108 38.6106C44.3552 40.2898 43.0532 41.6951 41.4554 42.6748L40.7531 43.0682C39.5656 43.6731 38.2681 43.9324 36.7465 44.0569C35.2441 44.1795 33.3782 44.1788 31.0264 44.1788H19.9747C17.6228 44.1788 15.7569 44.1795 14.2546 44.0569C12.9228 43.948 11.7635 43.7343 10.6986 43.2773L10.2478 43.0682C8.5689 42.2127 7.16344 40.9104 6.18378 39.3129L5.79034 38.6106C5.1854 37.423 4.92607 36.1256 4.80171 34.6038C4.67897 33.1016 4.67969 31.2355 4.67969 28.8839V22.0904C4.67969 19.7386 4.67897 17.8727 4.80171 16.3704C4.92604 14.8486 5.18543 13.5513 5.79034 12.3636L6.18378 11.6613C7.16344 10.0637 8.56884 8.76156 10.2478 7.90606L10.6986 7.69439C11.7633 7.23776 12.9232 7.02624 14.2546 6.91743C15.7569 6.7947 17.6228 6.79541 19.9747 6.79541H31.0264C33.3782 6.79541 35.2441 6.7947 36.7465 6.91743C38.2681 7.04177 39.5656 7.30115 40.7531 7.90606L41.4554 8.29953C43.0529 9.27916 44.3552 10.6846 45.2108 12.3636L45.4224 12.8143C45.8791 13.879 46.0905 15.0389 46.1994 16.3704C46.322 17.8727 46.3213 19.7386 46.3213 22.0904V28.8839ZM20.8189 40.787H31.0264C33.4341 40.787 35.138 40.7862 36.4701 40.6776C37.7823 40.5703 38.5841 40.366 39.2142 40.045L39.6824 39.7836C40.7488 39.1298 41.6165 38.1921 42.1875 37.0717L42.4068 36.5611C42.6044 36.0083 42.7398 35.3116 42.8201 34.3273C42.929 32.9952 42.9298 31.2913 42.9298 28.8839V22.0904C42.9298 19.6828 42.929 17.9789 42.8201 16.6468C42.7398 15.6627 42.6041 14.9658 42.4068 14.413L42.1875 13.9025C41.6165 12.782 40.7485 11.8445 39.6824 11.1907L39.2142 10.9292C38.5841 10.6081 37.7826 10.4039 36.4701 10.2967C35.138 10.1879 33.4341 10.1871 31.0264 10.1871H20.8189L20.8214 10.1996L20.8189 40.787Z" fill="#606876"/>
</svg>
