<svg width="32" height="32" viewBox="0 0 32 32" fill="none" xmlns="http://www.w3.org/2000/svg">
<path d="M28.0976 7.19961L26.4016 5.50361C26.1798 5.27915 25.9157 5.10093 25.6246 4.9793C25.3335 4.85766 25.0211 4.79503 24.7056 4.79503C24.39 4.79503 24.0777 4.85766 23.7865 4.9793C23.4954 5.10093 23.2313 5.27915 23.0096 5.50361L6.40156 22.1116V27.1996H11.4896L28.0976 10.5916C29.0416 9.66361 29.0416 8.14361 28.0976 7.19961ZM10.4976 24.7996H8.80156V23.1036L21.3136 10.5916L23.0096 12.2876L10.4976 24.7996ZM16.0016 8.79961C12.0176 8.79961 8.80156 5.58361 8.80156 1.59961C8.80156 5.58361 5.58556 8.79961 1.60156 8.79961C5.58556 8.79961 8.80156 12.0156 8.80156 15.9996C8.80156 12.0156 12.0176 8.79961 16.0016 8.79961Z" fill="#8A8A8A"/>
</svg>
