<svg xmlns="http://www.w3.org/2000/svg" width="37" height="37" viewBox="0 0 37 37" fill="none">
<path d="M28.1272 32.375V28.9802H24.7325C24.0532 28.9802 23.5022 28.4295 23.5022 27.75C23.5022 27.0705 24.0532 26.5197 24.7325 26.5197H28.1272V23.125C28.1272 22.4455 28.6782 21.8947 29.3575 21.8947C30.0366 21.8951 30.5861 22.4458 30.5861 23.125V26.5197H33.9825C34.6616 26.5201 35.2111 27.0708 35.2111 27.75C35.2111 28.4291 34.6616 28.9798 33.9825 28.9802H30.5861V32.375C30.5861 33.0541 30.0366 33.6048 29.3575 33.6052C28.6782 33.6052 28.1272 33.0545 28.1272 32.375ZM3.92188 23.4953V13.5046C3.92188 12.2947 3.92021 11.3125 3.98511 10.5182C4.05119 9.71 4.19211 8.98785 4.53432 8.31593L4.75112 7.9275C5.29149 7.04657 6.06727 6.32886 6.99317 5.85709L7.2479 5.73784C7.84721 5.48092 8.48838 5.36568 9.19547 5.30787C9.98977 5.24297 10.9719 5.24463 12.1818 5.24463H13.4682C13.7331 5.24463 13.9173 5.24432 14.0987 5.25547L14.5684 5.30426C15.6531 5.46317 16.6717 5.93613 17.4952 6.67008L17.9486 7.11271C18.156 7.32187 18.2241 7.38987 18.2901 7.44874L18.496 7.61676C18.9892 7.98717 19.5821 8.20726 20.2015 8.24546L20.6821 8.25088H25.3287C26.362 8.25088 27.2002 8.25018 27.8816 8.29785C28.5744 8.34636 29.1978 8.44859 29.7893 8.70075L30.2771 8.93742C31.3827 9.54052 32.2596 10.501 32.7576 11.6691L32.9184 12.1171C33.0555 12.5714 33.1221 13.0483 33.1587 13.5642C33.2068 14.2411 33.2075 15.0728 33.2075 16.0953C33.2073 16.4211 33.0782 16.7338 32.8481 16.9643C32.6172 17.195 32.3034 17.3257 31.9773 17.3257H6.38253V23.4953C6.38253 24.7457 6.38371 25.6102 6.43853 26.2812C6.49218 26.9374 6.59128 27.3 6.72759 27.5675L6.84863 27.786C7.15253 28.2815 7.58902 28.6842 8.10967 28.9495L8.33189 29.0453C8.57738 29.133 8.90424 29.1985 9.39599 29.2387C10.0669 29.2934 10.9314 29.2947 12.1818 29.2947H17.4066L17.656 29.3199C18.2163 29.4349 18.6369 29.9307 18.6369 30.525C18.6369 31.1192 18.2163 31.615 17.656 31.73L17.4066 31.7552H12.1818C10.9719 31.7552 9.98977 31.7569 9.19547 31.6921C8.48838 31.6342 7.84721 31.519 7.2479 31.262L6.99317 31.1429C6.06727 30.6711 5.29149 29.9533 4.75112 29.0723L4.53432 28.684C4.19211 28.0121 4.05119 27.2899 3.98511 26.4818C3.92021 25.6874 3.92188 24.7052 3.92188 23.4953ZM6.38253 14.865H30.7415C30.7367 14.4216 30.7278 14.0558 30.7054 13.7395C30.6756 13.321 30.6268 13.0396 30.5626 12.8271L30.4939 12.6338C30.2139 11.9771 29.7208 11.4374 29.0992 11.0982L28.8247 10.9645C28.5905 10.8646 28.2741 10.7926 27.7099 10.7531C27.1343 10.7128 26.3966 10.7115 25.3287 10.7115H20.6821L20.0498 10.7007C18.9485 10.6328 17.8949 10.2427 17.0182 9.5842L16.6533 9.28609C16.5173 9.16491 16.3886 9.03206 16.2016 8.84348L15.8584 8.50742C15.3948 8.09417 14.8214 7.82705 14.2107 7.7378L13.9487 7.7107C13.8603 7.70524 13.7634 7.70528 13.4682 7.70528H12.1818C10.9314 7.70528 10.0669 7.70648 9.39599 7.76128C8.90424 7.8015 8.57738 7.86684 8.33189 7.95461L8.10967 8.05034C7.58902 8.31569 7.15253 8.71847 6.84863 9.21383L6.72759 9.43242C6.59128 9.69995 6.49218 10.0626 6.43853 10.7188C6.38371 11.3896 6.38253 12.2541 6.38253 13.5046V14.865Z" fill="#4A5568"/>
</svg>