<svg xmlns="http://www.w3.org/2000/svg" width="37" height="37" viewBox="0 0 37 37" fill="none">
<g clip-path="url(#clip0_4298_668)">
<mask id="mask0_4298_668" style="mask-type:luminance" maskUnits="userSpaceOnUse" x="0" y="0" width="40" height="40">
<path d="M38.6143 0.5V38.6143H0.5V0.5H38.6143Z" fill="white" stroke="white"/>
</mask>
<g mask="url(#mask0_4298_668)">
<path d="M33.736 18.58C33.736 18.2051 33.736 17.8303 33.736 17.4555C33.736 14.8541 33.736 13.5534 33.2297 12.5599C32.7844 11.6859 32.0739 10.9753 31.1999 10.53C30.2064 10.0237 28.9056 10.0237 26.3043 10.0237C24.8011 10.0237 23.2979 10.0237 21.7946 10.0237C21.498 10.0237 21.3497 10.0237 21.2067 10.0149C20.1673 9.95081 19.1793 9.53913 18.4019 8.84603C18.295 8.7508 18.1906 8.64545 17.9817 8.43472C17.7727 8.22399 17.6683 8.11864 17.5615 8.02341C16.784 7.33031 15.7961 6.91863 14.7565 6.8545C14.6137 6.8457 14.4653 6.8457 14.1686 6.8457C13.7157 6.8457 13.2628 6.8457 12.8099 6.8457C10.2086 6.8457 8.90787 6.8457 7.91429 7.35196C7.04032 7.79728 6.32975 8.50785 5.88443 9.38181C5.37817 10.3754 5.37817 11.6761 5.37817 14.2774C5.37817 17.7977 5.37817 21.318 5.37817 24.8383C5.37817 27.4396 5.37817 28.7403 5.88443 29.7338C6.32975 30.6078 7.04032 31.3183 7.91429 31.7637C8.90787 32.27 10.2086 32.27 12.8099 32.27C14.4071 32.27 16.0042 32.27 17.6014 32.27" stroke="#4A5568" stroke-width="2.33" stroke-linecap="round"/>
<path d="M6.53596 17.4316C6.13069 17.4316 5.92806 17.4316 5.77327 17.5084C5.63711 17.5758 5.52642 17.6835 5.45705 17.8159C5.37817 17.9665 5.37817 18.1635 5.37817 18.5577C5.37817 20.7184 5.37817 22.8792 5.37817 25.04C5.37817 27.57 5.37817 28.835 5.88443 29.8013C6.32975 30.6513 7.04032 31.3426 7.91429 31.7757C8.90787 32.2679 10.2086 32.2679 12.8099 32.2679C17.308 32.2679 21.8062 32.2679 26.3043 32.2679C28.9056 32.2679 30.2064 32.2679 31.1999 31.7757C32.0739 31.3426 32.7844 30.6513 33.2297 29.8013C33.736 28.835 33.736 27.57 33.736 25.04C33.736 22.8792 33.736 20.7184 33.736 18.5577C33.736 18.1635 33.736 17.9665 33.6572 17.8159C33.5878 17.6835 33.4771 17.5758 33.341 17.5084C33.1861 17.4316 32.9835 17.4316 32.5783 17.4316C23.8975 17.4316 15.2167 17.4316 6.53596 17.4316Z" stroke="#4A5568" stroke-width="2.33" stroke-linecap="round"/>
</g>
</g>
<defs>
<clipPath id="clip0_4298_668">
<rect width="37" height="37" fill="white"/>
</clipPath>
</defs>
</svg>